<svg id="Component_19_1" data-name="Component 19 – 1" xmlns="http://www.w3.org/2000/svg" width="58.528" height="50.32" viewBox="0 0 58.528 50.32">
  <path id="Exclusion_2" data-name="Exclusion 2" d="M18.687,50.037,0,0H18.689V50.036Zm4.287-1.58h-.7v-4.29h4.68v4.289h-.7V44.875H24.97v2.879h-.715V44.875H22.974v3.581Zm0-5.5h-.7V39.135a.845.845,0,0,1,.845-.845h2.99a.843.843,0,0,1,.845.845v3.821h-.7V39.233a.278.278,0,0,0-.049-.192.269.269,0,0,0-.192-.049h-2.8a.272.272,0,0,0-.192.049.278.278,0,0,0-.049.192v3.724Zm3.978-5.916h-4.68V36.2l3.738-3.139H22.272v-.7h4.68V33.2l-3.731,3.134h3.731v.707Zm-3.978-5.875h-.7v-4.29h4.68v4.289h-.7V27.584H24.97v2.88h-.715v-2.88H22.974v3.582Zm3.978-5.539h-4.68v-.7h4.68v.7ZM26.1,23.743H24.788a.854.854,0,0,1-.845-.851v-.468l-1.54,1.3h-.131V22.9l1.67-1.4V19.765h-1.67v-.7h4.674v3.829a.854.854,0,0,1-.845.851Zm-1.215-3.978a.266.266,0,0,0-.189.049.287.287,0,0,0-.045.192v2.789a.283.283,0,0,0,.045.194.278.278,0,0,0,.189.046H26a.29.29,0,0,0,.192-.046.273.273,0,0,0,.049-.194V20.005a.193.193,0,0,0-.24-.24Zm-1.912-1.891h-.7V13.584h4.68v4.288h-.7V14.292H24.97v2.879h-.715V14.292H22.974v3.581ZM26.1,12.589H24.788a.854.854,0,0,1-.845-.851l-.006-3.127H22.272v-.7h4.674v3.829a.826.826,0,0,1-.25.6A.816.816,0,0,1,26.1,12.589ZM24.886,8.611a.266.266,0,0,0-.189.049.287.287,0,0,0-.045.192V11.64a.288.288,0,0,0,.045.2.278.278,0,0,0,.189.046H26a.29.29,0,0,0,.192-.046.278.278,0,0,0,.049-.2V8.852a.193.193,0,0,0-.24-.24ZM22.4,6.687h-.131V5.868L24.06,4.36l-1.787-1.5V2.046H22.4l2.209,1.859,2.21-1.859h.13v.813L25.165,4.367l1.787,1.5v.813h-.13l-2.21-1.859L22.4,6.687Z" transform="translate(31.576)"/>
  <g id="Group_188" data-name="Group 188">
    <g id="Group_187" data-name="Group 187">
      <path id="Path_220" data-name="Path 220" d="M7122-8145v50.042L7140.689-8145Z" transform="translate(-7122 8145)"/>
      <path id="Path_221" data-name="Path 221" d="M7211.215-7832.916l4.741-12.652h5.34v12.652Z" transform="translate(-7199.992 7883.236)"/>
      <path id="Path_222" data-name="Path 222" d="M7270.558-8016.211h12.536l-6.466-16.176Z" transform="translate(-7251.869 8046.554)"/>
      <path id="Path_223" data-name="Path 223" d="M7221.3-7832.916l-4.741-12.652h-5.34v12.652Z" transform="translate(-7182.506 7883.236)"/>
    </g>
  </g>
</svg>
